<?xml version="1.0" standalone="no"?>
<!DOCTYPE svg PUBLIC "-//W3C//DTD SVG 20010904//EN"
 "http://www.w3.org/TR/2001/REC-SVG-20010904/DTD/svg10.dtd">
<svg version="1.0" xmlns="http://www.w3.org/2000/svg"
 width="271.000000pt" height="246.000000pt" viewBox="0 0 271.000000 246.000000"
 preserveAspectRatio="xMidYMid meet">

<g transform="translate(0.000000,246.000000) scale(0.100000,-0.100000)"
fill="#000000" stroke="none">
<path d="M131 2386 c-77 -28 -123 -135 -87 -204 21 -42 76 -82 121 -89 41 -7
54 -26 37 -54 -13 -20 -17 -509 -6 -568 10 -47 48 -79 102 -86 66 -9 96 -22
84 -38 -25 -32 -47 -165 -46 -287 0 -111 2 -130 24 -174 13 -27 32 -51 42 -54
29 -7 51 -57 36 -81 -10 -17 -4 -29 45 -95 32 -42 61 -76 65 -76 5 0 17 -8 28
-18 26 -24 139 -92 153 -92 6 0 11 -3 11 -7 0 -5 17 -16 38 -25 157 -72 191
-83 317 -102 44 -7 87 -15 95 -19 8 -3 48 -7 88 -9 71 -4 73 -5 110 -46 20
-23 54 -49 75 -57 20 -8 37 -22 37 -31 0 -8 14 -37 32 -64 37 -57 87 -77 165
-66 114 15 161 108 113 221 -11 26 -20 50 -20 54 0 4 23 13 52 20 57 13 194
79 235 114 90 76 157 161 196 247 48 109 52 131 52 285 0 83 -3 168 -7 190 -7
37 -6 41 20 52 15 6 56 16 91 24 37 7 75 22 90 35 25 22 26 25 24 136 -1 62
-7 208 -12 323 -6 116 -11 215 -11 221 0 6 18 14 40 17 61 8 102 55 108 123 6
68 -10 106 -56 137 -66 45 -103 53 -153 33 -50 -20 -66 -40 -95 -116 l-21 -55
-119 -38 c-65 -22 -128 -43 -139 -48 -11 -4 -45 -16 -75 -25 -190 -58 -204
-66 -214 -137 -8 -55 -15 -57 -99 -27 -31 11 -65 20 -76 20 -11 0 -22 4 -25 9
-11 17 -238 45 -276 34 -14 -4 -77 -8 -140 -9 -63 -1 -131 -3 -150 -5 l-35 -4
-19 80 c-10 44 -23 90 -29 102 -11 24 -96 57 -177 69 -25 4 -49 10 -55 14 -14
10 -60 19 -195 35 -93 11 -149 19 -187 25 -2 0 -3 11 -3 25 0 14 -9 34 -20 45
-11 11 -20 32 -20 46 0 38 -16 61 -51 73 -40 14 -64 13 -108 -3z m1495 -807
c70 -12 87 -21 145 -81 45 -48 87 -164 70 -196 -6 -11 -11 -30 -11 -42 0 -25
-95 -120 -121 -120 -10 0 -24 -12 -31 -27 -15 -33 -74 -46 -84 -19 -5 13 -8
14 -20 1 -15 -14 -44 -10 -44 6 0 5 -11 4 -24 -3 -33 -14 -56 -4 -56 25 0 16
-9 28 -27 37 -91 45 -133 111 -133 205 0 30 3 55 8 55 4 0 13 15 21 33 29 68
90 113 169 124 23 3 42 10 42 15 0 6 7 8 15 4 8 -3 45 -11 81 -17z m-418 -441
c23 -13 74 -43 114 -68 146 -92 226 -110 303 -69 22 12 42 25 45 29 14 20 120
70 150 70 19 0 57 -13 88 -31 49 -28 55 -29 71 -15 22 20 33 11 25 -20 -4 -16
4 -36 30 -69 44 -58 76 -142 83 -216 10 -106 -50 -241 -131 -291 -56 -36 -136
-66 -182 -70 -38 -3 -38 -3 -46 41 -9 54 -46 103 -94 126 -29 14 -54 16 -113
13 -43 -3 -77 -10 -79 -17 -2 -6 -9 -11 -16 -11 -24 0 -79 -69 -96 -122 l-17
-53 -74 3 c-85 4 -224 27 -288 48 -86 29 -153 93 -197 189 -24 52 -26 66 -22
144 4 65 12 99 31 139 60 124 157 217 268 256 61 21 98 20 147 -6z m429 -628
c48 -29 68 -66 68 -126 0 -40 6 -58 21 -76 55 -59 71 -146 34 -185 -31 -34
-85 -48 -132 -34 -30 9 -46 23 -68 58 -28 43 -29 48 -14 65 19 20 19 19 -51
37 -51 13 -80 39 -95 86 -39 117 129 241 237 175z"/>
<path d="M1414 1362 c-15 -10 -34 -47 -34 -66 0 -9 9 -25 20 -36 16 -16 24
-18 44 -9 30 14 50 60 42 94 -5 19 -13 25 -34 25 -15 0 -32 -4 -38 -8z"/>
<path d="M1686 1325 c-16 -16 -13 -61 6 -97 23 -46 85 4 72 58 -13 54 -46 71
-78 39z"/>
<path d="M990 915 c0 -8 9 -20 20 -27 11 -7 20 -18 20 -25 0 -15 -26 -17 -35
-3 -3 6 -10 10 -16 10 -17 0 -9 -26 16 -48 20 -17 25 -31 25 -66 0 -79 51
-136 123 -136 49 0 81 30 105 98 42 113 26 144 -79 161 -79 13 -149 32 -155
42 -8 14 -24 10 -24 -6z"/>
<path d="M2016 892 c-6 -10 -97 -29 -146 -31 -96 -3 -110 -18 -110 -111 0 -82
20 -127 65 -146 76 -31 149 23 165 122 6 32 10 60 10 62 0 1 6 2 13 2 7 0 18
9 25 21 12 19 11 20 -23 13 -43 -8 -44 2 -3 36 20 17 27 29 20 33 -6 4 -13 4
-16 -1z"/>
<path d="M1508 715 c-73 -40 -24 -121 59 -100 40 10 53 24 53 56 0 51 -57 73
-112 44z m72 -30 c10 -12 10 -18 0 -30 -25 -30 -77 -12 -65 24 8 25 46 29 65
6z"/>
</g>
</svg>
