<?xml version="1.0" standalone="no"?>
<!DOCTYPE svg PUBLIC "-//W3C//DTD SVG 20010904//EN"
 "http://www.w3.org/TR/2001/REC-SVG-20010904/DTD/svg10.dtd">
<svg version="1.0" xmlns="http://www.w3.org/2000/svg"
 width="271.000000pt" height="246.000000pt" viewBox="0 0 271.000000 246.000000"
 preserveAspectRatio="xMidYMid meet">

<g transform="translate(0.000000,246.000000) scale(0.100000,-0.100000)"
fill="#000000" stroke="none">
<path d="M135 2388 c-86 -30 -129 -132 -90 -209 21 -39 91 -89 126 -89 31 0
50 -33 30 -53 -14 -14 -15 -544 -2 -580 16 -41 51 -66 100 -72 64 -9 95 -22
84 -38 -27 -35 -47 -156 -47 -282 -1 -117 2 -135 24 -179 13 -27 32 -51 42
-54 10 -2 18 -11 18 -18 0 -8 4 -14 9 -14 14 0 18 -33 7 -52 -8 -13 3 -33 47
-92 32 -42 61 -76 65 -76 5 0 17 -8 28 -18 26 -24 139 -92 153 -92 6 0 11 -3
11 -7 0 -5 17 -16 38 -25 157 -73 225 -94 327 -104 39 -4 75 -10 80 -14 6 -4
44 -10 87 -12 76 -3 76 -3 120 -50 23 -25 55 -49 70 -53 15 -4 30 -16 34 -28
4 -12 20 -43 37 -68 24 -37 39 -49 82 -64 50 -16 55 -17 104 0 101 33 136 116
91 220 -11 26 -20 50 -20 54 0 4 24 13 52 20 55 12 189 75 228 107 85 68 165
169 203 254 48 109 52 131 52 285 0 83 -3 168 -7 190 -7 37 -6 41 20 52 15 6
56 16 91 24 37 7 75 22 90 35 25 21 26 27 26 126 0 94 -3 157 -21 464 l-6 101
40 6 c62 8 103 52 110 115 6 66 -3 98 -36 129 -31 29 -98 63 -123 63 -28 0
-91 -30 -110 -53 -10 -12 -21 -34 -24 -49 -4 -15 -11 -30 -16 -33 -5 -4 -9
-14 -9 -24 0 -22 -21 -33 -145 -72 -55 -17 -109 -35 -120 -39 -21 -10 -71 -26
-174 -56 -80 -24 -119 -60 -119 -109 0 -20 -3 -39 -6 -43 -4 -3 -26 0 -49 7
-23 6 -60 17 -82 22 -22 6 -49 14 -60 19 -52 22 -238 44 -275 33 -14 -4 -77
-8 -140 -9 -63 -1 -131 -3 -150 -5 l-35 -4 -19 80 c-27 115 -34 125 -102 146
-33 10 -79 21 -104 25 -25 4 -49 10 -55 14 -14 10 -60 18 -195 35 -93 11 -149
19 -187 25 -2 0 -3 13 -3 29 0 16 -6 31 -14 34 -8 3 -17 21 -21 39 -12 62 -17
70 -51 84 -39 16 -67 17 -109 2z m1526 -823 c62 -21 109 -63 143 -125 64 -117
21 -246 -100 -296 -22 -9 -34 -21 -34 -34 0 -12 -9 -22 -24 -26 -30 -7 -44 1
-56 30 -6 15 -9 16 -9 5 -1 -18 -27 -33 -42 -23 -5 3 -9 17 -10 32 l-1 27 -7
-25 c-5 -19 -13 -25 -36 -25 -25 0 -31 5 -33 27 -2 18 -12 30 -33 38 -136 57
-161 241 -47 348 61 58 193 79 289 47z m-476 -420 c27 -7 51 -18 54 -22 21
-28 186 -120 251 -139 64 -19 97 -10 191 52 114 75 145 80 227 33 41 -23 57
-28 67 -19 20 16 33 5 28 -24 -4 -17 6 -38 36 -76 43 -54 81 -159 81 -223 0
-43 -33 -151 -59 -194 -32 -51 -108 -100 -199 -129 -45 -15 -85 -24 -88 -21
-3 3 -10 25 -15 49 -20 86 -87 139 -178 140 -60 0 -111 -10 -111 -23 0 -5 -6
-9 -14 -9 -25 0 -89 -83 -100 -131 l-11 -44 -70 3 c-84 4 -215 26 -290 48 -68
19 -148 89 -190 166 -28 49 -30 61 -29 148 0 81 4 104 27 153 58 126 163 227
273 261 62 19 62 19 119 1z m452 -635 c47 -28 67 -64 67 -125 1 -41 6 -59 23
-77 54 -57 69 -150 30 -186 -67 -63 -159 -45 -202 38 -13 24 -13 33 -3 50 16
26 -1 40 -49 40 -69 0 -124 86 -100 156 35 99 155 153 234 104z"/>
<path d="M1404 1355 c-20 -20 -25 -34 -22 -62 2 -31 8 -39 32 -48 25 -8 31 -6
52 18 37 43 42 77 14 99 -30 24 -46 23 -76 -7z"/>
<path d="M1687 1332 c-20 -22 -22 -81 -4 -106 19 -25 68 -18 83 13 20 39 -14
111 -51 111 -7 0 -19 -8 -28 -18z"/>
<path d="M990 916 c0 -8 10 -22 22 -30 17 -12 20 -18 10 -28 -9 -9 -15 -9 -24
0 -7 7 -16 12 -20 12 -15 0 -8 -29 10 -42 12 -8 21 -32 26 -67 12 -94 57 -141
133 -141 52 1 69 17 98 91 29 74 32 120 7 142 -9 8 -64 25 -122 37 -58 12
-109 25 -114 31 -14 13 -26 11 -26 -5z"/>
<path d="M1992 885 c-12 -7 -60 -15 -105 -19 -118 -10 -127 -18 -127 -114 0
-89 19 -131 69 -152 27 -11 38 -10 75 4 52 20 72 47 87 118 7 33 21 62 36 76
13 12 21 27 17 33 -4 8 -9 8 -17 0 -14 -14 -37 -14 -37 0 0 6 11 20 25 31 43
33 26 51 -23 23z"/>
<path d="M1502 718 c-42 -20 -41 -91 1 -102 65 -17 117 6 117 53 0 52 -59 77
-118 49z m74 -32 c17 -14 18 -16 3 -31 -11 -11 -24 -14 -42 -9 -29 7 -34 23
-15 42 16 16 30 15 54 -2z"/>
</g>
</svg>
